<?xml version="1.0" encoding="UTF-8" standalone="no"?>
<!-- Created with Inkscape (http://www.inkscape.org/) -->

<svg
   xmlns:dc="http://purl.org/dc/elements/1.1/"
   xmlns:cc="http://creativecommons.org/ns#"
   xmlns:rdf="http://www.w3.org/1999/02/22-rdf-syntax-ns#"
   xmlns:svg="http://www.w3.org/2000/svg"
   xmlns="http://www.w3.org/2000/svg"
   xmlns:xlink="http://www.w3.org/1999/xlink"
   xmlns:sodipodi="http://sodipodi.sourceforge.net/DTD/sodipodi-0.dtd"
   xmlns:inkscape="http://www.inkscape.org/namespaces/inkscape"
   width="64"
   height="64"
   id="svg4136"
   version="1.1"
   inkscape:version="0.91 r13725"
   viewBox="0 0 64 64"
   sodipodi:docname="All Hail Zorp.svg">
  <defs
     id="defs4138" />
  <sodipodi:namedview
     id="base"
     pagecolor="#ffffff"
     bordercolor="#666666"
     borderopacity="1.0"
     inkscape:pageopacity="0.0"
     inkscape:pageshadow="2"
     inkscape:zoom="7.7781746"
     inkscape:cx="58.414958"
     inkscape:cy="36.884578"
     inkscape:current-layer="layer1"
     showgrid="true"
     inkscape:document-units="px"
     inkscape:grid-bbox="true"
     showguides="false"
     inkscape:guide-bbox="true"
     inkscape:window-width="1920"
     inkscape:window-height="1017"
     inkscape:window-x="1912"
     inkscape:window-y="-8"
     inkscape:window-maximized="1">
    <sodipodi:guide
       position="-31.409091,50.318182"
       orientation="1,0"
       id="guide4715" />
    <sodipodi:guide
       position="-31.409091,42.090909"
       orientation="0,1"
       id="guide4719" />
    <sodipodi:guide
       position="-31.409091,42.090909"
       orientation="1,0"
       id="guide4743" />
    <sodipodi:guide
       position="-71.160655,65.568083"
       orientation="0,1"
       id="guide4764" />
    <sodipodi:guide
       position="-83.085047,65.568083"
       orientation="1,0"
       id="guide4766" />
    <sodipodi:guide
       position="-83.085047,65.568083"
       orientation="-0.70710678,0.70710678"
       id="guide4775" />
    <sodipodi:guide
       position="-83.085047,65.568083"
       orientation="-0.73208408,-0.68121428"
       id="guide4777" />
  </sodipodi:namedview>
  <metadata
     id="metadata4141">
    <rdf:RDF>
      <cc:Work
         rdf:about="">
        <dc:format>image/svg+xml</dc:format>
        <dc:type
           rdf:resource="http://purl.org/dc/dcmitype/StillImage" />
        <dc:title></dc:title>
      </cc:Work>
    </rdf:RDF>
  </metadata>
  <g
     id="layer1"
     inkscape:label="Layer 1"
     inkscape:groupmode="layer">
    <rect
       style="opacity:1;fill:#000000;fill-opacity:1;stroke:none;stroke-width:3.4000001;stroke-linecap:round;stroke-linejoin:miter;stroke-miterlimit:4;stroke-dasharray:none;stroke-opacity:1"
       id="rect5020"
       width="64.181816"
       height="64.36364"
       x="106.96597"
       y="-0.090909123" />
    <circle
       style="opacity:1;fill:#000b9e;fill-opacity:1;stroke:none;stroke-width:34.45000076;stroke-linecap:round;stroke-linejoin:miter;stroke-miterlimit:4;stroke-dasharray:none;stroke-opacity:1"
       id="path4690"
       cx="32.970501"
       cy="31.619671"
       r="22.433922" />
    <ellipse
       cy="14.061762"
       cx="-31.454546"
       id="circle4745"
       style="opacity:1;fill:#5cea00;fill-opacity:1;stroke:none;stroke-width:34.45000076;stroke-linecap:round;stroke-linejoin:miter;stroke-miterlimit:4;stroke-dasharray:none;stroke-opacity:1"
       rx="14.026073"
       ry="15.6444" />
    <circle
       r="7.818182"
       cy="6.2352066"
       cx="-31.454546"
       id="circle4749"
       style="opacity:1;fill:#ea00d9;fill-opacity:1;stroke:none;stroke-width:34.45000076;stroke-linecap:round;stroke-linejoin:miter;stroke-miterlimit:4;stroke-dasharray:none;stroke-opacity:1" />
    <rect
       style="opacity:1;fill:#00ffff;fill-opacity:1;stroke:none;stroke-width:34.45000076;stroke-linecap:round;stroke-linejoin:miter;stroke-miterlimit:4;stroke-dasharray:none;stroke-opacity:1"
       id="rect4751"
       width="26.136364"
       height="38"
       x="-31.409092"
       y="-3.909091" />
    <path
       style="opacity:1;fill:#9600ea;fill-opacity:1;stroke:none;stroke-width:34.45000076;stroke-linecap:round;stroke-linejoin:miter;stroke-miterlimit:4;stroke-dasharray:none;stroke-opacity:1"
       d="m -106.54662,-0.93084514 a 15.6444,14.026073 0 0 0 15.603524,13.29882914 15.6444,14.026073 0 0 0 15.644531,-14.0253912 15.6444,14.026073 0 0 0 -0.0019,-0.046874 7.818182,7.818182 0 0 0 -7.81641,-7.7714803 7.818182,7.818182 0 0 0 -7.816406,7.7714841 l -0.01954,3.75e-5 a 7.818182,7.818182 0 0 1 0.0019,0.046874 7.818182,7.818182 0 0 1 -7.818355,7.8164045 7.818182,7.818182 0 0 1 -7.777344,-7.08984648 z"
       id="ellipse4753"
       inkscape:connector-curvature="0"
       inkscape:transform-center-x="7.7727335"
       inkscape:transform-center-y="3.0454545" />
    <path
       inkscape:transform-center-y="7.7727275"
       inkscape:transform-center-x="-3.0454545"
       inkscape:connector-curvature="0"
       id="path4769"
       d="m -82.481363,21.797408 a 14.026073,15.6444 0 0 0 13.298829,-15.6035162 14.026073,15.6444 0 0 0 -14.025391,-15.6445312 14.026073,15.6444 0 0 0 -0.04687,0.00195 7.818182,7.818182 0 0 0 -7.771484,7.8164062 7.818182,7.818182 0 0 0 7.771484,7.8164063 l 0,0.019531 a 7.818182,7.818182 0 0 1 0.04687,-0.00195 7.818182,7.818182 0 0 1 7.816406,7.8183589 7.818182,7.818182 0 0 1 -7.089844,7.777344 z"
       style="opacity:1;fill:#9600ea;fill-opacity:1;stroke:none;stroke-width:34.45000076;stroke-linecap:round;stroke-linejoin:miter;stroke-miterlimit:4;stroke-dasharray:none;stroke-opacity:1" />
    <path
       style="opacity:1;fill:#9600ea;fill-opacity:1;stroke:none;stroke-width:34.45000076;stroke-linecap:round;stroke-linejoin:miter;stroke-miterlimit:4;stroke-dasharray:none;stroke-opacity:1"
       d="m -83.818359,-24.996094 a 14.026073,15.6444 0 0 0 -13.298829,15.6035157 14.026073,15.6444 0 0 0 14.025391,15.644531 14.026073,15.6444 0 0 0 0.04686,-0.00199 7.818182,7.818182 0 0 0 7.771485,-7.8164072 7.818182,7.818182 0 0 0 -7.771487,-7.8164025 l 2.8e-5,-0.019544 a 7.818182,7.818182 0 0 1 -0.04687,0.002 7.818182,7.818182 0 0 1 -7.816393,-7.818373 7.818182,7.818182 0 0 1 7.089845,-7.777343 z"
       id="path4771"
       inkscape:connector-curvature="0"
       inkscape:transform-center-x="3.045459"
       inkscape:transform-center-y="-7.7727339" />
    <path
       inkscape:transform-center-y="-3.0454589"
       inkscape:transform-center-x="-7.772737"
       inkscape:connector-curvature="0"
       id="path4779"
       d="m -59.75311,-2.2678412 a 15.6444,14.026073 0 0 0 -15.603516,-13.2988288 15.6444,14.026073 0 0 0 -15.644531,14.0253908 15.6444,14.026073 0 0 0 0.002,0.04686 7.818182,7.818182 0 0 0 7.816407,7.771485 7.818182,7.818182 0 0 0 7.816403,-7.771487 l 0.01954,2.8e-5 a 7.818182,7.818182 0 0 1 -0.002,-0.04687 7.818182,7.818182 0 0 1 7.818373,-7.816393 7.818182,7.818182 0 0 1 7.777343,7.089845 z"
       style="opacity:1;fill:#9600ea;fill-opacity:1;stroke:none;stroke-width:34.45000076;stroke-linecap:round;stroke-linejoin:miter;stroke-miterlimit:4;stroke-dasharray:none;stroke-opacity:1" />
    <path
       sodipodi:type="star"
       style="opacity:1;fill:#ececec;fill-opacity:1;stroke:none;stroke-width:3.4000001;stroke-linecap:round;stroke-linejoin:miter;stroke-miterlimit:4;stroke-dasharray:none;stroke-opacity:1"
       id="path4834"
       sodipodi:sides="197"
       sodipodi:cx="13.374738"
       sodipodi:cy="25.374754"
       sodipodi:r1="0.89907634"
       sodipodi:r2="0.13383207"
       sodipodi:arg1="0.73781506"
       sodipodi:arg2="0.75376223"
       inkscape:flatsided="false"
       inkscape:rounded="0"
       inkscape:randomized="0"
       d="m 14.04,25.979538 -0.567683,-0.513191 0.548059,0.534098 -0.551029,-0.531033 0.530748,0.551304 -0.533815,-0.548335 0.512898,0.567948 -0.516058,-0.565079 0.494526,0.584015 -0.497775,-0.581247 0.47565,0.599488 -0.478987,-0.596826 0.456292,0.614351 -0.459711,-0.611797 0.436469,0.62859 -0.439968,-0.626145 0.416201,0.642188 -0.419777,-0.639857 0.395512,0.655134 -0.399159,-0.652918 0.374418,0.667413 -0.378135,-0.665314 0.352945,0.679013 -0.356727,-0.677034 0.331113,0.689923 -0.334956,-0.688065 0.308943,0.700131 -0.312843,-0.698397 0.28646,0.709626 -0.290413,-0.708018 0.263684,0.718401 -0.267687,-0.716919 0.240641,0.726444 -0.244689,-0.72509 0.217353,0.733748 -0.221442,-0.732525 0.193844,0.740307 -0.197971,-0.739214 0.170139,0.746112 -0.174297,-0.745151 0.146259,0.751157 -0.150447,-0.75033 0.122232,0.75544 -0.126443,-0.754746 0.09808,0.758953 -0.102311,-0.758394 0.07383,0.761694 -0.07807,-0.761271 0.0495,0.763662 -0.05376,-0.763374 0.02512,0.764852 -0.02939,-0.7647 7.19e-4,0.765264 -0.005,-0.765248 -0.02369,0.764898 0.01942,-0.765018 -0.04806,0.763753 0.0438,-0.764009 -0.0724,0.761832 0.06814,-0.762224 -0.09665,0.759136 0.09242,-0.759664 -0.120811,0.755668 0.116595,-0.75633 -0.144848,0.751431 0.140654,-0.752227 -0.168736,0.74643 0.164571,-0.747359 -0.192454,0.740669 0.188319,-0.741731 -0.215974,0.734155 0.211876,-0.735348 -0.239276,0.726895 0.235218,-0.728219 -0.262334,0.718895 0.258321,-0.720347 -0.285126,0.710164 0.28116,-0.711743 -0.307627,0.70071 0.303714,-0.702415 -0.329815,0.690544 0.325958,-0.692373 -0.351668,0.679676 0.347872,-0.681627 -0.373164,0.668116 0.369432,-0.670187 -0.39428,0.655876 0.390616,-0.658064 -0.414995,0.642969 0.411402,-0.645274 -0.435287,0.629408 0.43177,-0.631826 -0.455137,0.615207 0.451698,-0.617736 -0.474523,0.600381 0.471167,-0.603018 -0.493427,0.584943 0.490157,-0.587686 -0.51183,0.568911 0.508649,-0.571757 -0.529712,0.5523 0.526623,-0.555246 -0.547054,0.535127 0.544061,-0.53817 -0.563841,0.51741 0.560946,-0.520547 -0.580053,0.499167 0.57726,-0.502394 -0.595676,0.480415 0.592987,-0.48373 -0.610693,0.461175 0.608112,-0.464574 -0.62509,0.441466 0.622618,-0.444946 -0.63885,0.421309 0.63649,-0.424866 -0.65196,0.400723 0.649715,-0.404353 -0.664407,0.379729 0.662278,-0.383428 -0.676177,0.358347 0.674168,-0.362113 -0.687261,0.336603 0.685373,-0.340431 -0.697645,0.314516 0.69588,-0.318403 -0.70732,0.292109 0.70568,-0.296049 -0.716276,0.269404 0.714762,-0.273395 -0.724502,0.246426 0.723116,-0.250463 -0.731992,0.223197 0.730736,-0.227276 -0.738737,0.199741 0.737611,-0.203859 -0.744731,0.176083 0.743738,-0.180234 -0.749968,0.152244 0.749107,-0.156424 -0.754441,0.128251 0.753714,-0.132457 -0.758147,0.104127 0.757554,-0.108354 -0.761082,0.0799 0.760625,-0.08414 -0.763243,0.05559 0.762921,-0.05984 -0.764627,0.03122 0.764441,-0.03548 -0.765234,0.0068 0.765184,-0.01109 -0.765062,-0.01759 0.765148,0.01332 -0.764112,-0.04197 0.764334,0.03771 -0.762385,-0.06632 0.762743,0.06207 -0.759882,-0.0906 0.760376,0.08636 -0.756607,-0.114782 0.757235,0.11056 -0.752562,-0.138851 0.753325,0.134652 -0.747752,-0.16278 0.748648,0.158606 -0.74218,-0.186541 0.743209,0.182399 -0.735854,-0.210114 0.737015,0.206006 -0.72878,-0.233472 0.73007,0.229404 -0.720963,-0.256594 0.722383,0.252569 -0.712414,-0.279454 0.713962,0.275476 -0.703141,-0.30203 0.704815,0.298103 -0.693152,-0.324298 0.69495,0.320427 -0.682458,-0.346238 0.684378,0.342427 -0.671069,-0.367825 0.67311,0.364076 -0.658998,-0.389037 0.661158,0.385355 -0.646258,-0.409854 0.648534,0.406243 -0.632859,-0.430254 0.635249,0.426718 -0.618817,-0.450217 0.621318,0.446758 -0.604145,-0.469721 0.606756,0.466344 -0.588859,-0.488747 0.591576,0.485455 -0.572974,-0.507277 0.575794,0.504074 -0.556506,-0.525291 0.559427,0.522179 -0.539472,-0.54277 0.542491,0.539752 -0.521889,-0.559697 0.525003,0.556778 -0.503776,-0.576055 0.506981,0.573236 -0.48515,-0.591827 0.488443,0.589112 -0.46603,-0.606997 0.469409,0.604388 -0.446437,-0.621549 0.449896,0.619049 -0.426389,-0.635469 0.429927,0.633081 -0.405908,-0.648743 0.40952,0.646469 -0.385014,-0.661357 0.388697,0.6592 -0.363728,-0.673299 0.367478,0.671259 -0.342073,-0.684555 0.345885,0.682637 -0.320068,-0.695116 0.32394,0.69332 -0.297739,-0.704969 0.301667,0.703297 -0.275107,-0.714105 0.279085,0.71256 -0.252195,-0.722515 0.256221,0.721097 -0.229026,-0.730189 0.233095,0.7289 -0.205625,-0.737121 0.209734,0.735963 -0.182015,-0.743304 0.186158,0.742277 -0.158219,-0.74873 0.162392,0.747836 -0.134262,-0.753395 0.138462,0.752634 -0.110169,-0.757292 0.114391,0.756666 -0.08596,-0.760421 0.0902,0.75993 -0.06167,-0.762776 0.06593,0.76242 -0.03732,-0.764354 0.04158,0.764134 -0.01292,-0.765155 0.01719,0.765071 0.01148,-0.765178 -0.0072,0.76523 0.03588,-0.764423 -0.03162,0.764611 0.06024,-0.76289 -0.05598,0.763214 0.08454,-0.760581 -0.08029,0.761041 0.108746,-0.757498 -0.104519,0.758093 0.132846,-0.753646 -0.12864,0.754375 0.156811,-0.749026 -0.152631,0.749889 0.180617,-0.743644 -0.176467,0.74464 0.20424,-0.737507 -0.200123,0.738634 0.227654,-0.730618 -0.223576,0.731877 0.250837,-0.722987 -0.2468,0.724375 0.273765,-0.714621 -0.269775,0.716136 0.296414,-0.705526 -0.292474,0.707169 0.318761,-0.695716 -0.314876,0.697483 0.340785,-0.685197 -0.336958,0.687087 0.362462,-0.673981 -0.358697,0.675992 0.38377,-0.66208 -0.380071,0.66421 0.404688,-0.649505 -0.40106,0.651752 0.425195,-0.636269 -0.421639,0.638631 0.445268,-0.622387 -0.44179,0.624861 0.464889,-0.607872 -0.461491,0.610455 0.484037,-0.592737 -0.480724,0.595428 0.502693,-0.577001 -0.499467,0.579796 0.520837,-0.560677 -0.517701,0.563573 0.538451,-0.543783 -0.53541,0.546778 0.555518,-0.526336 -0.552574,0.529426 0.57202,-0.508353 -0.569175,0.511535 0.587939,-0.489853 -0.585198,0.493125 0.603262,-0.470855 -0.600626,0.474212 0.617969,-0.451378 -0.615442,0.454818 0.632049,-0.431443 -0.629633,0.434962 0.645486,-0.411068 -0.643183,0.414662 0.658266,-0.390275 -0.656079,0.39394 0.670377,-0.369085 -0.668308,0.372818 0.681806,-0.347519 -0.679857,0.351317 0.692541,-0.325601 -0.690714,0.329458 0.702572,-0.303351 -0.70087,0.307265 0.711889,-0.280792 -0.710311,0.284758 0.72048,-0.257948 -0.71903,0.261963 0.728339,-0.234842 -0.727018,0.238901 0.735458,-0.211497 -0.734267,0.215595 0.741828,-0.187935 -0.740768,0.19207 0.747444,-0.164184 -0.746517,0.16835 0.7523,-0.140265 -0.751506,0.144459 0.75639,-0.116204 -0.75573,0.120421 0.759711,-0.09202 -0.759186,0.09626 0.762259,-0.06775 -0.761869,0.072 0.764032,-0.04341 -0.763778,0.04767 0.765027,-0.01902 -0.764909,0.02329 0.765245,0.0054 -0.765263,-0.0011 0.764684,0.02978 -0.764839,-0.02552 0.763346,0.05415 -0.763636,-0.04989 0.761231,0.07847 -0.761657,-0.07422 0.758342,0.102703 -0.758903,-0.09847 0.754681,0.126833 -0.755376,-0.122621 0.750252,0.150834 -0.751082,-0.146647 0.745061,0.174682 -0.746024,-0.170524 0.739112,0.198353 -0.740207,-0.194228 0.732411,0.221822 -0.733636,-0.217733 0.724964,0.245064 -0.72632,-0.241017 0.716781,0.268058 -0.718265,-0.264056 0.707868,0.290779 -0.709479,-0.286826 0.698236,0.313204 -0.699972,-0.309305 0.687893,0.335311 -0.689752,-0.331469 0.67685,0.357077 -0.678831,-0.353296 0.665118,0.378479 -0.667219,-0.374764 0.652711,0.399497 -0.654929,-0.39585 0.63964,0.420108 -0.641973,-0.416534 0.625917,0.440292 -0.628363,-0.436794 0.611559,0.460028 -0.614116,-0.45661 0.596579,0.479296 -0.599243,-0.475961 0.580991,0.498076 -0.58376,-0.494827 z"
       inkscape:transform-center-x="0.56901331"
       inkscape:transform-center-y="-0.061286754" />
    <use
       id="use4896"
       xlink:href="#path4834"
       transform="matrix(0.96020193,0,0,0.96020193,29.796326,0.99704294)"
       x="0"
       y="0"
       width="100%"
       height="100%" />
    <use
       id="use4898"
       xlink:href="#path4834"
       transform="matrix(1.0438046,0,0,1.0438046,33.529899,-1.8823335)"
       x="0"
       y="0"
       width="100%"
       height="100%" />
    <use
       id="use4900"
       xlink:href="#path4834"
       transform="matrix(1.0438204,0,0,1.0438204,36.422824,4.8910908)"
       x="0"
       y="0"
       width="100%"
       height="100%" />
    <use
       id="use4902"
       xlink:href="#path4834"
       transform="matrix(0.96893123,0,0,0.96893123,35.8682,8.6874339)"
       x="0"
       y="0"
       width="100%"
       height="100%" />
    <use
       id="use4904"
       xlink:href="#path4834"
       transform="matrix(1.004532,0,0,1.004532,33.253527,12.300541)"
       x="0"
       y="0"
       width="100%"
       height="100%" />
    <use
       id="use4906"
       xlink:href="#path4834"
       transform="matrix(0.99329922,0,0,0.99329922,37.659495,11.974815)"
       x="0"
       y="0"
       width="100%"
       height="100%" />
    <use
       id="use4908"
       xlink:href="#path4834"
       transform="matrix(1.0219484,0,0,1.0219484,31.578046,13.146838)"
       x="0"
       y="0"
       width="100%"
       height="100%" />
    <use
       id="use4910"
       xlink:href="#path4834"
       transform="matrix(1.0295892,0,0,1.0295892,34.741906,11.753729)"
       x="0"
       y="0"
       width="100%"
       height="100%" />
    <use
       id="use4912"
       xlink:href="#path4834"
       transform="matrix(1.0103476,0,0,1.0103476,21.57038,21.172245)"
       x="0"
       y="0"
       width="100%"
       height="100%" />
    <use
       id="use4914"
       xlink:href="#path4834"
       transform="matrix(1.0431589,0,0,1.0431589,19.26991,19.534168)"
       x="0"
       y="0"
       width="100%"
       height="100%" />
    <use
       id="use4916"
       xlink:href="#path4834"
       transform="matrix(0.97051079,0,0,0.97051079,19.916816,23.250774)"
       x="0"
       y="0"
       width="100%"
       height="100%" />
    <use
       id="use4918"
       xlink:href="#path4834"
       transform="matrix(0.99055998,0,0,0.99055998,16.232889,19.654115)"
       x="0"
       y="0"
       width="100%"
       height="100%" />
    <use
       id="use4920"
       xlink:href="#path4834"
       transform="matrix(0.95570844,0,0,0.95570844,17.192828,24.112212)"
       x="0"
       y="0"
       width="100%"
       height="100%" />
    <use
       id="use4922"
       xlink:href="#path4834"
       transform="matrix(1.0179677,0,0,1.0179677,1.8205599,5.4832473)"
       x="0"
       y="0"
       width="100%"
       height="100%" />
    <use
       id="use4924"
       xlink:href="#path4834"
       transform="matrix(0.96411252,0,0,0.96411252,5.2276152,4.3969561)"
       x="0"
       y="0"
       width="100%"
       height="100%" />
    <use
       id="use4926"
       xlink:href="#path4834"
       transform="matrix(0.96957158,0,0,0.96957158,4.6490665,0.55855259)"
       x="0"
       y="0"
       width="100%"
       height="100%" />
    <use
       id="use4928"
       xlink:href="#path4834"
       transform="matrix(0.95519574,0,0,0.95519574,4.5659234,-2.6863629)"
       x="0"
       y="0"
       width="100%"
       height="100%" />
    <use
       id="use4930"
       xlink:href="#path4834"
       transform="matrix(1.0144017,0,0,1.0144017,3.5473249,-2.3130464)"
       x="0"
       y="0"
       width="100%"
       height="100%" />
    <use
       id="use4932"
       xlink:href="#path4834"
       transform="matrix(1.0268056,0,0,1.0268056,18.440643,-10.434138)"
       x="0"
       y="0"
       width="100%"
       height="100%" />
    <use
       id="use4934"
       xlink:href="#path4834"
       transform="matrix(0.96416861,0,0,0.96416861,18.483058,-10.975589)"
       x="0"
       y="0"
       width="100%"
       height="100%" />
    <use
       id="use4936"
       xlink:href="#path4834"
       transform="matrix(0.97873832,0,0,0.97873832,19.123725,-12.069664)"
       x="0"
       y="0"
       width="100%"
       height="100%" />
    <use
       id="use4938"
       xlink:href="#path4834"
       transform="matrix(1.003437,0,0,1.003437,20.123315,-11.51236)"
       x="0"
       y="0"
       width="100%"
       height="100%" />
    <use
       id="use4940"
       xlink:href="#path4834"
       transform="matrix(0.97544971,0,0,0.97544971,23.923227,-9.2275446)"
       x="0"
       y="0"
       width="100%"
       height="100%" />
    <use
       id="use4942"
       xlink:href="#path4834"
       transform="matrix(0.97722289,0,0,0.97722289,34.873946,-5.6956229)"
       x="0"
       y="0"
       width="100%"
       height="100%" />
    <use
       id="use4944"
       xlink:href="#path4834"
       transform="matrix(1.0410688,0,0,1.0410688,25.784457,-13.970483)"
       x="0"
       y="0"
       width="100%"
       height="100%" />
    <use
       id="use4946"
       xlink:href="#path4834"
       transform="matrix(1.0498929,0,0,1.0498929,29.435198,-10.283428)"
       x="0"
       y="0"
       width="100%"
       height="100%" />
    <use
       id="use4948"
       xlink:href="#path4834"
       transform="matrix(1.01742,0,0,1.01742,33.100484,-10.370013)"
       x="0"
       y="0"
       width="100%"
       height="100%" />
    <use
       id="use4950"
       xlink:href="#path4834"
       transform="matrix(1.0132703,0,0,1.0132703,12.78019,-9.3908876)"
       x="0"
       y="0"
       width="100%"
       height="100%" />
    <use
       id="use4952"
       xlink:href="#path4834"
       transform="matrix(1.0470584,0,0,1.0470584,5.6150125,3.4422744)"
       x="0"
       y="0"
       width="100%"
       height="100%" />
    <use
       id="use4954"
       xlink:href="#path4834"
       transform="matrix(0.99441627,0,0,0.99441627,5.3632403,6.8242301)"
       x="0"
       y="0"
       width="100%"
       height="100%" />
    <use
       id="use4956"
       xlink:href="#path4834"
       transform="matrix(1.0212389,0,0,1.0212389,4.4034775,5.746833)"
       x="0"
       y="0"
       width="100%"
       height="100%" />
    <use
       id="use4958"
       xlink:href="#path4834"
       transform="matrix(1.0363706,0,0,1.0363706,9.7476256,19.593751)"
       x="0"
       y="0"
       width="100%"
       height="100%" />
    <use
       id="use4960"
       xlink:href="#path4834"
       transform="matrix(1.0344381,0,0,1.0344381,11.573023,20.762849)"
       x="0"
       y="0"
       width="100%"
       height="100%" />
    <use
       id="use4962"
       xlink:href="#path4834"
       transform="matrix(1.0366237,0,0,1.0366237,14.518138,18.396984)"
       x="0"
       y="0"
       width="100%"
       height="100%" />
    <use
       id="use4964"
       xlink:href="#path4834"
       transform="matrix(1.0395473,0,0,1.0395473,11.217656,20.442239)"
       x="0"
       y="0"
       width="100%"
       height="100%" />
    <use
       id="use4966"
       xlink:href="#path4834"
       transform="matrix(0.9976402,0,0,0.9976402,8.0344004,6.4960841)"
       x="0"
       y="0"
       width="100%"
       height="100%" />
    <use
       id="use4968"
       xlink:href="#path4834"
       transform="matrix(1.0128767,0,0,1.0128767,6.5683848,9.5325157)"
       x="0"
       y="0"
       width="100%"
       height="100%" />
    <use
       id="use4970"
       xlink:href="#path4834"
       transform="matrix(0.96518108,0,0,0.96518108,8.9837513,8.2564468)"
       x="0"
       y="0"
       width="100%"
       height="100%" />
    <use
       id="use4972"
       xlink:href="#path4834"
       transform="matrix(1.0062954,0,0,1.0062954,1.6231163,6.7702717)"
       x="0"
       y="0"
       width="100%"
       height="100%" />
    <use
       id="use4974"
       xlink:href="#path4834"
       transform="matrix(1.046088,0,0,1.046088,5.6224404,7.8045046)"
       x="0"
       y="0"
       width="100%"
       height="100%" />
    <use
       id="use4976"
       xlink:href="#path4834"
       transform="matrix(0.98316476,0,0,0.98316476,10.374518,12.584344)"
       x="0"
       y="0"
       width="100%"
       height="100%" />
    <use
       id="use4978"
       xlink:href="#path4834"
       transform="matrix(1.0202049,0,0,1.0202049,12.475504,16.320474)"
       x="0"
       y="0"
       width="100%"
       height="100%" />
    <use
       id="use4980"
       xlink:href="#path4834"
       transform="matrix(0.96042317,0,0,0.96042317,19.677016,18.915104)"
       x="0"
       y="0"
       width="100%"
       height="100%" />
    <use
       id="use4982"
       xlink:href="#path4834"
       transform="matrix(0.95040163,0,0,0.95040163,22.269234,24.295866)"
       x="0"
       y="0"
       width="100%"
       height="100%" />
    <use
       id="use4984"
       xlink:href="#path4834"
       transform="matrix(0.99407815,0,0,0.99407815,26.348986,17.694172)"
       x="0"
       y="0"
       width="100%"
       height="100%" />
    <use
       id="use4986"
       xlink:href="#path4834"
       transform="matrix(1.0214185,0,0,1.0214185,26.714472,21.036826)"
       x="0"
       y="0"
       width="100%"
       height="100%" />
    <use
       id="use4988"
       xlink:href="#path4834"
       transform="matrix(0.95568916,0,0,0.95568916,26.973088,18.355106)"
       x="0"
       y="0"
       width="100%"
       height="100%" />
    <use
       id="use4990"
       xlink:href="#path4834"
       transform="matrix(1.0493857,0,0,1.0493857,35.863815,6.0590727)"
       x="0"
       y="0"
       width="100%"
       height="100%" />
    <use
       id="use4992"
       xlink:href="#path4834"
       transform="matrix(0.96134192,0,0,0.96134192,33.993108,3.5342141)"
       x="0"
       y="0"
       width="100%"
       height="100%" />
    <use
       id="use4994"
       xlink:href="#path4834"
       transform="matrix(0.96883726,0,0,0.96883726,32.562701,0.2235601)"
       x="0"
       y="0"
       width="100%"
       height="100%" />
    <use
       id="use4996"
       xlink:href="#path4834"
       transform="matrix(1.0180841,0,0,1.0180841,28.766441,9.6928761)"
       x="0"
       y="0"
       width="100%"
       height="100%" />
    <use
       id="use4998"
       xlink:href="#path4834"
       transform="matrix(0.99169188,0,0,0.99169188,30.776774,23.164844)"
       x="0"
       y="0"
       width="100%"
       height="100%" />
    <use
       id="use5000"
       xlink:href="#path4834"
       transform="matrix(1.0062064,0,0,1.0062064,29.923851,24.088605)"
       x="0"
       y="0"
       width="100%"
       height="100%" />
    <use
       id="use5002"
       xlink:href="#path4834"
       transform="matrix(0.97531171,0,0,0.97531171,36.371203,15.966232)"
       x="0"
       y="0"
       width="100%"
       height="100%" />
    <use
       id="use5004"
       xlink:href="#path4834"
       transform="matrix(1.0176876,0,0,1.0176876,31.497611,6.3715329)"
       x="0"
       y="0"
       width="100%"
       height="100%" />
    <use
       id="use5006"
       xlink:href="#path4834"
       transform="matrix(0.98756407,0,0,0.98756407,26.554982,0.06886261)"
       x="0"
       y="0"
       width="100%"
       height="100%" />
    <use
       id="use5008"
       xlink:href="#path4834"
       transform="matrix(1.0199948,0,0,1.0199948,17.626197,-9.0163553)"
       x="0"
       y="0"
       width="100%"
       height="100%" />
    <use
       id="use5010"
       xlink:href="#path4834"
       transform="matrix(0.97668409,0,0,0.97668409,15.638727,-5.7679824)"
       x="0"
       y="0"
       width="100%"
       height="100%" />
    <use
       id="use5012"
       xlink:href="#path4834"
       transform="matrix(0.96308919,0,0,0.96308919,12.046406,-4.4959517)"
       x="0"
       y="0"
       width="100%"
       height="100%" />
    <use
       id="use5014"
       xlink:href="#path4834"
       transform="matrix(0.98193543,0,0,0.98193543,9.9052011,-6.3464491)"
       x="0"
       y="0"
       width="100%"
       height="100%" />
    <g
       id="g4801"
       transform="matrix(1.1008222,0,0,1.1008222,-3.0021123,-1.720971)"
       style="fill:#5cea00;fill-opacity:1">
      <path
         style="opacity:1;fill:#5cea00;fill-opacity:1;stroke:none;stroke-width:34.45000076;stroke-linecap:round;stroke-linejoin:miter;stroke-miterlimit:4;stroke-dasharray:none;stroke-opacity:1"
         d="m 13.395251,30.837989 a 12.893506,11.559744 0 0 0 12.859817,10.960379 12.893506,11.559744 0 0 0 12.893614,-11.559183 12.893506,11.559744 0 0 0 -0.0016,-0.03863 6.4434415,6.4434415 0 0 0 -6.441981,-6.404952 6.4434415,6.4434415 0 0 0 -6.441978,6.404955 l -0.0161,3.2e-5 a 6.4434415,6.4434415 0 0 1 0.0016,0.03863 6.4434415,6.4434415 0 0 1 -6.443584,6.441976 6.4434415,6.4434415 0 0 1 -6.409784,-5.843175 z"
         id="path4781"
         inkscape:connector-curvature="0"
         inkscape:transform-center-x="6.4059845"
         inkscape:transform-center-y="2.509944" />
      <path
         inkscape:transform-center-y="6.4059408"
         inkscape:transform-center-x="-2.5099441"
         inkscape:connector-curvature="0"
         id="path4783"
         d="M 33.228899,49.569732 A 11.559744,12.893506 0 0 0 44.189277,36.709921 11.559744,12.893506 0 0 0 32.630095,23.816307 a 11.559744,12.893506 0 0 0 -0.03863,0.0016 6.4434415,6.4434415 0 0 0 -6.404955,6.441978 6.4434415,6.4434415 0 0 0 6.404955,6.441978 l 0,0.0161 a 6.4434415,6.4434415 0 0 1 0.03863,-0.0016 6.4434415,6.4434415 0 0 1 6.441978,6.443588 6.4434415,6.4434415 0 0 1 -5.843174,6.409784 z"
         style="opacity:1;fill:#5cea00;fill-opacity:1;stroke:none;stroke-width:34.45000076;stroke-linecap:round;stroke-linejoin:miter;stroke-miterlimit:4;stroke-dasharray:none;stroke-opacity:1" />
      <path
         style="opacity:1;fill:#5cea00;fill-opacity:1;stroke:none;stroke-width:34.45000076;stroke-linecap:round;stroke-linejoin:miter;stroke-miterlimit:4;stroke-dasharray:none;stroke-opacity:1"
         d="m 32.126999,11.004348 a 11.559744,12.893506 0 0 0 -10.960377,12.85981 11.559744,12.893506 0 0 0 11.559181,12.893614 11.559744,12.893506 0 0 0 0.03862,-0.0016 6.4434415,6.4434415 0 0 0 6.404955,-6.441979 6.4434415,6.4434415 0 0 0 -6.404957,-6.441974 l 2.3e-5,-0.0161 a 6.4434415,6.4434415 0 0 1 -0.03863,0.0016 6.4434415,6.4434415 0 0 1 -6.441967,-6.443599 6.4434415,6.4434415 0 0 1 5.843174,-6.409783 z"
         id="path4785"
         inkscape:connector-curvature="0"
         inkscape:transform-center-x="2.5099494"
         inkscape:transform-center-y="-6.4059829" />
      <path
         inkscape:transform-center-y="-2.5099488"
         inkscape:transform-center-x="-6.4059856"
         inkscape:connector-curvature="0"
         id="path4787"
         d="M 51.960642,29.736089 A 12.893506,11.559744 0 0 0 39.100831,18.775713 12.893506,11.559744 0 0 0 26.207217,30.334894 a 12.893506,11.559744 0 0 0 0.0016,0.03862 6.4434415,6.4434415 0 0 0 6.441979,6.404955 6.4434415,6.4434415 0 0 0 6.441975,-6.404957 l 0.0161,2.3e-5 a 6.4434415,6.4434415 0 0 1 -0.0016,-0.03863 6.4434415,6.4434415 0 0 1 6.443599,-6.441967 6.4434415,6.4434415 0 0 1 6.409783,5.843174 z"
         style="opacity:1;fill:#5cea00;fill-opacity:1;stroke:none;stroke-width:34.45000076;stroke-linecap:round;stroke-linejoin:miter;stroke-miterlimit:4;stroke-dasharray:none;stroke-opacity:1" />
    </g>
    <circle
       style="opacity:1;fill:#9600ea;fill-opacity:1;stroke:none;stroke-width:34.45000076;stroke-linecap:round;stroke-linejoin:miter;stroke-miterlimit:4;stroke-dasharray:none;stroke-opacity:1"
       id="path4698"
       cx="32.743755"
       cy="31.65527"
       r="6.2765913" />
    <g
       id="g4829">
      <path
         inkscape:connector-curvature="0"
         id="path4825"
         d="m 50.409684,4.937849 c -0.75393,0.1401301 -1.82464,-0.3254239 -2.19474,0.557996 -13.177026,17.774773 -26.426655,35.503251 -39.5333485,53.325499 0.994944,0.163416 2.0219045,0.0607 3.0290595,0.0914 13.299877,-17.977393 26.663459,-35.916128 39.902569,-53.9332139 -0.39273,-0.070261 -0.80527,-0.033433 -1.20354,-0.041683 z"
         style="opacity:1;fill:#ffffff;fill-opacity:1;stroke:#9600ea;stroke-width:0.43712056;stroke-linecap:round;stroke-linejoin:miter;stroke-miterlimit:4;stroke-dasharray:none;stroke-opacity:1" />
      <text
         sodipodi:linespacing="125%"
         id="text4684"
         y="60.545452"
         x="4.9285474"
         style="font-style:normal;font-variant:normal;font-weight:normal;font-stretch:normal;font-size:40px;line-height:125%;font-family:Castellar;-inkscape-font-specification:Castellar;letter-spacing:0px;word-spacing:0px;fill:#9600ea;fill-opacity:1;stroke:none;stroke-width:1px;stroke-linecap:butt;stroke-linejoin:miter;stroke-opacity:1"
         xml:space="preserve"><tspan
           style="font-size:80px;fill:#9600ea;fill-opacity:1"
           y="60.545452"
           x="4.9285474"
           id="tspan4686"
           sodipodi:role="line">Z</tspan></text>
    </g>
  </g>
</svg>
